<svg width="50" height="50" viewBox="0 0 50 50" fill="none" xmlns="http://www.w3.org/2000/svg">
<path d="M25 4.0625C36.5635 4.0625 45.9375 13.4365 45.9375 25C45.9375 36.5635 36.5635 45.9375 25 45.9375C13.4365 45.9375 4.06251 36.5635 4.06251 25C4.06251 13.4365 13.4365 4.0625 25 4.0625ZM25 8.4375C15.8528 8.4375 8.4375 15.8528 8.4375 25C8.4375 34.1472 15.8528 41.5625 25 41.5625C34.1472 41.5625 41.5625 34.1472 41.5625 25C41.5625 15.8528 34.1472 8.4375 25 8.4375ZM23.8542 25L28.526 29.599C29.3802 30.4533 29.3802 31.8384 28.526 32.6926C27.6717 33.5469 26.2866 33.5469 25.4324 32.6926L19.1824 26.4426C18.3281 25.5884 18.3281 24.2033 19.1824 23.349L25.4324 17.099C26.2866 16.2448 27.6717 16.2448 28.526 17.099C29.3802 17.9533 29.3802 19.3384 28.526 20.1926L23.8542 25Z" fill="black"/>
</svg>
