<?xml version="1.0" encoding="UTF-8"?>
<svg width="700pt" height="700pt" version="1.1" viewBox="0 0 700 700" xmlns="http://www.w3.org/2000/svg">
 <g>
  <path d="m237.05 309.82c0-8.6992-7.0508-15.75-15.75-15.75h-66.516c-8.6992 0-15.75 7.0508-15.75 15.75 0 8.6992 7.0508 15.75 15.75 15.75h66.516c8.6992 0 15.75-7.0547 15.75-15.75z"/>
  <path d="m237.05 250.18c0-8.6992-7.0508-15.75-15.75-15.75h-116.3c-8.6992 0-15.75 7.0508-15.75 15.75 0 8.6992 7.0508 15.75 15.75 15.75h116.3c8.6992 0 15.75-7.0508 15.75-15.75z"/>
  <path d="m584.27 235.6-290.29-156.92c-19.039-10.289-41.754-7.5781-57.836 6.9492-16.086 14.543-21.074 36.855-12.762 56.855l54.215 130.23c1.9609 4.707 1.9609 9.8711 0 14.578l-54.215 130.22c-8.3281 20.02-3.3242 42.316 12.758 56.859 9.5898 8.6797 21.559 13.141 33.688 13.141 8.1914 0 16.469-2.0469 24.148-6.1953l290.27-156.91c16.344-8.8203 26.477-25.848 26.477-44.414 0.003906-18.566-10.129-35.578-26.457-44.398zm-14.98 61.094-290.27 156.92c-10.973 5.8984-19.441-0.52344-21.754-2.6094-2.3438-2.1172-9.5742-9.8867-4.7969-21.387l54.199-130.22c0.48828-1.1914 0.71875-2.4492 1.1016-3.6562h96.531c8.6992 0 15.75-7.0508 15.75-15.75 0-8.6992-7.0508-15.75-15.75-15.75h-96.512c-0.40234-1.207-0.61328-2.4688-1.1016-3.6406l-54.215-130.23c-4.7773-11.48 2.4492-19.266 4.7969-21.367 1.6289-1.4688 6.2461-5.0586 12.637-5.0586 2.7461 0 5.8086 0.66406 9.1016 2.4336l290.29 156.92c6.2266 3.3789 9.9531 9.6094 9.9531 16.695s-3.7266 13.316-9.957 16.695z"/>
 </g>
</svg>
